<?xml version="1.0" encoding="UTF-8"?>
<svg enable-background="new 0 0 1901.003 1669.306" version="1.1" viewBox="0 0 1901.003 1669.306" xmlns="http://www.w3.org/2000/svg">
 <path d="m1825.3 1633.4c-22.034 6.624-39.107-14.612-61.301-18.376-12.639-2.144-21.588-58.244-22.411-65.671-3.143-28.376-19.957-52.31-24.517-80.109-0.364-2.221-3.308-5.558-5.301-5.746-39.833-3.751-58.618-35.162-82.297-60.916-39.507-42.969-60.961-96.102-79.906-149.08-13.252-37.057-40.534-63.354-57.501-96.883-65.765-129.96-36.757-64.695-81.912-129.69-93.123-134.05 3.369-110.12-81.515-189.62-26.008-24.358-72.49 50.844-82.527 75.762-21.612 53.658-54.472 99.887-92.777 141.46-225.84 245.13-181.45 309.62-300.86 432.83-34.047 35.13-63.73 18.797-91.748 10.355-11.399-3.434-24.298-11.591-33.939-0.132-12.001 14.264-26.096 28.34-17.682 51.402 7.102 19.463 7.139 36.642-24.76 31.401-77.476-12.728-120.02 0.217-227.88-8.136-19.042-1.474-11.938-15.436-0.331-15.112 30.232 0.842 51.329-19.473 75.485-32.206 3.344-1.763 109.81-58.969 114.82-66.652 25.747-39.484 56.793-75.531 76.691-118.81 9.813-21.345 23.222-40.666 37.542-58.972 55.32-70.719 5.969-77.79 10.893-289.43 0.517-22.232 2.402-44.431 3.016-66.663 0.648-23.453-20.792-75.045-22.605-75.591-26.513-7.972-19.359-32.249-23.908-50.406-41.036-163.8-24.248-166.16-20.442-307.93 1.152-42.916-69.083-16.171-85.252-6.412-50.572 30.525-134.74 2.785-171.75-38.198-72.357-80.13 23.1-199.37 121.1-166.99 27.136 8.967 105.14 46.117 109.31 27.716 2.959-13.061-13.53-5.684-86.802-37.876-29.7-13.049-62.767-11.973-92.462-24.463-50.366-21.185-101.89-39.381-155.13-51.577-56.627-12.972-107.59-41.832-162.39-57.536-43.874-12.572-72.4-40.549-104.57-66.94-31.617-25.938-43.142-26.388-39.683-32.738 1.856-3.407 59.703 3.962 96.003 24.934 72.974 42.16 56.453 23.45 94.719 30.428 62.834 11.457 123.52 30.796 185.11 46.838 81.059 21.114 127.39-0.364 285.57 50.863 135.87 44.005 455.55 61.679 542.38 209.26 3.755 6.381 8.528 11.502 16.269 13.204 113.33 24.919 268.38 224.07 306.35 411.01 0.805 3.964 11.082 75.206 20.017 85.88 50.757 60.638 55.015 193.62 117.64 285.6 18.725 27.504 26.064 60.955 35.922 92.576 39.335 126.18 59.472 119.63 42.238 137.82-18.72 19.754-18.502 44.219 0.241 65.086 18.185 20.245 24.568 73.502 65.758 98.24 16.732 10.048 14.484 22.479 10.142 36.936-3.556 11.842-9.571 9.259-33.067 9.259zm-989.88-413.88c0.06 4.074-2.644 9.581 2.635 11.92 11.139 4.934 83.6-83.724 103.36-184.85 0.78-3.991 1.68-7.801 5.265-9.969 27.72-16.759 30.563-78.379 59.459-122.88 26.124-40.228 71.584-138.25 51.564-179.76-9.07-18.806-11.243-37.983-9.797-58.187 0.389-5.43 1.661-11.85-5.176-14.301-21.136-7.577-41.013-17.572-65.52-13.719-31.338 4.926-63.45 12.309-94.751-3.19-6.077-3.009-19.308-3.625-15.692 8.522 11.551 38.802-40.207 62.434-16.96 115.19 10.01 22.716-17.02 26.206-14.049 44.494 45.816 282.02-3.311 203.35-0.339 406.72z"/>
</svg>
