<?xml version="1.0" encoding="utf-8"?>
<!-- Generator: Adobe Illustrator 24.0.1, SVG Export Plug-In . SVG Version: 6.00 Build 0)  -->
<svg version="1.1" id="Layer_1" xmlns="http://www.w3.org/2000/svg" xmlns:xlink="http://www.w3.org/1999/xlink" x="0px" y="0px"
	 viewBox="0 0 1125 2436" style="enable-background:new 0 0 1125 2436;" xml:space="preserve">
<path d="M448.88,584.15l-1.98-13.08c0,0-0.54-10.23-5.35-8.82c0,0-4.9-14.05-18.48-6.77c0,0-11.66-12.14-14.59-8.27
	c0,0-20.37-6.27-23.29,3.45c0,0-10.25-10.25-15.06-2.96c0,0-16.07,3.43-16.07,6.82c0,0-3.84-4.35-5.31-0.5
	c0,0-21.31-4.84-24.33,5.36c0,0-16.98,15.04-16.98,22.85c0,0-7.3,7.77-5.34,16.5c0,0-6.35,8.26-1.95,12.16l-2.45,7.29l2.45,8.76
	c0,0-1.44,25.75,1.95,28.2c0,0,2.35,4.35,2.35,11.63c0,0,0,16.54,4.37,17.99l3.97,11.13c0,0,9.28,20.43,16.47,20.94l2.52,23.8
	c0,0-17.55,0.47-26.35,13.09c0,0-10.62,16.54-10.62,28.22c0,0-37.95,21.85-47.63,24.34c0,0-46.66,21.34-62.19,64.1
	c0,0-14.65,18.02-16.03,31.6c0,0-36.5,103.47-36.94,130.73l-1.01,21.83c0,0-2.93,8.78,0.5,11.19l-1.89,13.63
	c0,0-1.98,3.39,2.39,3.87l19.43,3.39c0,0-1.92,23.8-5.81,28.71c0,0-17.98,81.14-8.74,105.9c0,0,2.35,33.55-0.54,41.8
	c0,0-4.84,25.31-0.97,29.18c0,0,3.43,16.03-1.01,26.23l-6.29,32.59c0,0-2.39,8.72,1.98,14.08l3.94,16.49c0,0,3.36,9.73,7.19,9.73
	c0,0,3.4,10.22,9.71,10.22c0,0,2.42,5.36,11.26,5.36c0,0,11.6,19.39,17.45,21.38c0,0,7.8,11.14,9.71,2.39c0,0-2.93-14.55-7.3-20.87
	l-3.9-10.71c0,0-0.44-12.59-1.92-17.5c0,0,1.92-9.22,0.47-12.62c0,0,3.94-6.81,3.94-0.47v10.68c0,0,0.43,15.53,4.8,19.45
	c0,0,2.93,4.87,9.28,4.87c0,0,3.36,0.48,1.88-7.33c0,0,1.48-4.37,1.99-13.09c0,0,3.39-14.58,0.94-18.94c0,0-0.47-2.49,0.53-9.73
	c0,0,1.45-31.61-10.72-44.74c0,0-8.27-15.55-7.73-25.26c0,0,3.83-42.79,9.61-53.96c0,0,32.63-79.65,30.18-97.18l6.83-39.34
	c0,0,2.99,0.98,2.45-2.94c0,0,1.45-15.52,5.78-17.95c0,0,6.86-12.67,7.3-17.99c0,0,6.29-15.06,1.92,0.5c0,0-1.92,13.6-3.9,18.45
	c0,0-6.72,17.98-2.92,24.79c0,0,4.9,18.45,1.98,22.35c0,0-15.53,26.23-2.86,34.46c0,0,6.32,13.61,2.42,25.31
	c0,0-42.79,65.07-27.22,109.34c0,0,5.78,20.91,1.44,35.97c0,0-18.92,80.67-1.44,133.62c0,0,14.52,76.29,18.04,79.22
	c0,0,1.85,10.69,0.91,26.71c0,0-15.6,146.79-0.48,173.96c0,0,5.31,25.75,2.39,31.11c0,0,3.93,79.22,7.73,83.11l2.52,18.92
	l-36.07,18.48c0,0-33.44,9.73-37.34,14.59c0,0-5.82,5.82-2.45,14.08c0,0,0,17.44,44.74,23.85c0,0,45.65-1.5,63.69-8.31
	c0,0,29.58-11.66,48.03-6.77c0,0,21.88,0,34.08-10.22c0,0,21.81,22.84,36.91,28.17c0,0,16.95,4.89,18.49,18.97
	c0,0,6.28,16.05,40.8,17.96c0,0,43.23,3.4,47.13-6.32c0,0,9.75-16.05-1.88-33.04c0,0-15.63-26.25-19.53-27.21l-14.99-20.91
	c0,0,8.73-1.43,8.73-6.79c0,0,3.87-28.16,1.88-34.52c0,0,0-23.78,2.45-34c0,0,9.72-57.83,5.82-75.81c0,0,4.84-97.21,11.16-105.93
	c0,0,12.2-27.72,12.2-38.41c0,0,20.44-85.5,17.51-92.32c0,0,1.85-19.93,10.18-30.15c0,0,39.83-115.16,31.53-150.6
	c0,0,5.34-21.43-0.44-29.66c0,0,15.63-43.24-18.45-68.54c0,0-16.51-16.52-16.51-26.23c0,0-8.74-40.34-6.32-52
	c0,0,19.9-36.43,22.28-63.66l32.6-121.46c0,0,13.11-58.82,39.9-82.13c0,0,44.13-47.67,44.7-53.97c0,0,2.39-5.36,11.09-4.87
	c0,0,9.28-1.95,13.15-10.18l17.01-30.62c0,0,3.43-10.22,12.27-13.63l30.52-9.21c0,0,58.32-0.49,117.1-42.79l42.29-23.31
	c0,0,11.13-3.4,21.41-3.4c0,0,36.44-3.41,38.35-6.79c0,0-6.79,8.24,7.8,7.75c0,0,17.91-5.85,20.91-9.24c0,0,13.07,0,13.07-4.35
	c0,0,2.46-2.87-0.43-6.82l11.09-17.96c0,0,5.88-2.89-3.36-14.59l-9.71-7.77c0,0-1.01-6.32,4.87-7.8l10.18-6.29l16.54-8.28
	c0,0,22.35-7.27,19.46-15.05l-1.48-3.39c0,0,4.84-4.41-10.69,0.48c0,0-23.4,7.28-27.29,10.69l-16.91,3.4l-9.28,3.38
	c0,0-8.7,2.96-12.61,2.96c0,0-13.18,0.48-22.79,11.61l-20.54,12.64c0,0-16.97,8.75-21.84,8.75c0,0-43.7,5.86-55.83,12.64
	c0,0-30.65,8.77-48.6,8.77c0,0-74.35,5.36-102.08,32.55l-16.98,7.77h-8.24c0,0-14.11-7.29-17.07,2.44l-8.2,8.27
	c0,0-20-2.44-19.53,8.25c0,0-24.27,2.44-27.19,6.32c0,0-7.23-2.47-12.61,1.95l-9.71-0.96c0,0-16.1-9.26-18.45,1.95
	c0,0-49.14,13.09-52.97,16.49c0,0-22.35-2.45-23.32,4.39c0,0-25.75-10.23-30.15-3.87l-2.93,0.45l-6.29-10.2c0,0,16-3.38,13.11-19.46
	l1.98-8.22c0,0,4.81-7.8,0.47-10.7v-11.67l-1.01-11.66c0,0,8.27-1.46,4.9-9.22l-7.83-13.18v-14.05c0,0,9.24-7.29,3.46-12.62
	l-10.25-17C460,614.8,457.55,589.51,448.88,584.15z"/>
</svg>
