<?xml version="1.0" encoding="UTF-8" standalone="no"?>
<!-- Generator: Adobe Illustrator 24.0.1, SVG Export Plug-In . SVG Version: 6.00 Build 0)  -->

<svg
   xmlns:dc="http://purl.org/dc/elements/1.1/"
   xmlns:cc="http://creativecommons.org/ns#"
   xmlns:rdf="http://www.w3.org/1999/02/22-rdf-syntax-ns#"
   xmlns:svg="http://www.w3.org/2000/svg"
   xmlns="http://www.w3.org/2000/svg"
   xmlns:sodipodi="http://sodipodi.sourceforge.net/DTD/sodipodi-0.dtd"
   xmlns:inkscape="http://www.inkscape.org/namespaces/inkscape"
   version="1.1"
   id="Layer_1"
   x="0px"
   y="0px"
   viewBox="0 0 1125 2436"
   style="enable-background:new 0 0 1125 2436;"
   xml:space="preserve"
   sodipodi:docname="1.svg"
   inkscape:version="0.92.4 (5da689c313, 2019-01-14)"><metadata
   id="metadata9"><rdf:RDF><cc:Work
       rdf:about=""><dc:format>image/svg+xml</dc:format><dc:type
         rdf:resource="http://purl.org/dc/dcmitype/StillImage" /><dc:title></dc:title></cc:Work></rdf:RDF></metadata><defs
   id="defs7" /><sodipodi:namedview
   pagecolor="#ffffff"
   bordercolor="#666666"
   borderopacity="1"
   objecttolerance="10"
   gridtolerance="10"
   guidetolerance="10"
   inkscape:pageopacity="0"
   inkscape:pageshadow="2"
   inkscape:window-width="640"
   inkscape:window-height="480"
   id="namedview5"
   showgrid="false"
   inkscape:zoom="0.096880131"
   inkscape:cx="562.5"
   inkscape:cy="1218"
   inkscape:window-x="0"
   inkscape:window-y="0"
   inkscape:window-maximized="0"
   inkscape:current-layer="Layer_1" />
<path
   d="M870.65,2300.94c-31.34-11.21-85.21-92.04-85.21-92.04c38.12-2.28,9.02-24.6,13.41-44.86  c4.56-20.25-22.38-168.37-15.64-197.53c6.69-29.17-22.54-98.73-26.94-127.95c-4.61-29.18-9.01-110.03-4.61-226.7  c4.61-116.78-15.7-345.72-15.7-345.72c40.51-33.66,74.18-132.47,74.18-132.47s13.41-56.07,13.41-62.78  c0-6.79,15.75-80.86,31.4-94.36c15.69-13.44,20.31-141.41,24.71-159.36c4.56-17.93-6.74-38.13-9.02-49.37  c-1.8-9.7-40.72-96.64-51.17-119.91c3.88-1.67,13.47-7.12,11.3-18.83l-0.53-1.7l0.06-0.95c0-11.22-26.88-58.44-35.84-89.82  c-9.02-31.4-76.31-96.53-101.02-103.24c-24.81-6.7-35.95-8.99-44.97-20.17l-2.01-2.17l-0.96-0.75l-1.8-1.56l-1.49-0.98l-2.12-1.56  l-1.59-1.07l-2.65-1.62l-1.59-1.03l-3.18-1.93l-1.49-0.88l-4.82-2.73l-1.11-0.58l-4.08-2.23l-1.7-0.9l-3.55-1.86l-1.65-0.87  l-3.5-1.81l-1.59-0.82l-3.65-1.85l-1.06-0.48c-5.83-2.91-10.92-5.31-14-6.79v0.09l-3.29-1.58c0-13.46,13.58-103.28,13.58-103.28  c4.45,6.78,15.64-2.23,15.64-2.23c0-6.76,13.57-42.66,13.57-42.66c6.73-20.17-4.67-22.4-4.67-22.4  c11.41-53.87-11.18-107.77-11.18-107.77C576.64,20.26,466.72,56.2,466.72,56.2c-74.13,17.97-58.43,141.39-58.43,141.39  c-13.42-8.93-6.74,38.21-6.74,38.21c0,33.62,24.72,35.89,24.72,35.89c0,17.97,11.24,38.18,11.24,38.18l-2.23,60.55  c-3.23-0.48-9.07,0.58-16.28,2.57l-0.32,0.08l-0.9,0.32l-4.24,1.27l-1.59,0.53l-4.08,1.39l-1.59,0.53l-5.62,2.05l-1.22,0.5  l-4.56,1.7l-2.12,0.8l-3.88,1.67l-1.8,0.68l-5.46,2.26l-1.16,0.52l-4.25,1.83l-1.8,0.85l-3.49,1.46l-1.49,0.74l-4.4,2.04l-0.68,0.35  l-3.18,1.59l-1.23,0.6l-2.28,1.14l-0.9,0.49l-2.28,1.24c-11.24,6.77-42.68,17.95-69.62,22.46c-26.99,4.56-85.26,56.21-92.04,74.13  l-1.54,3.44l-0.06,0.37l-2.13,4.3l-0.31,0.72l-2.6,5.03l-0.53,1.01l-3.08,5.75l-0.48,0.85l-3.71,6.62v0.03  c-2.65,4.9-5.68,10.1-8.65,15.32l-0.37,0.56l-4.4,7.85l-0.16,0.21c-12.67,21.61-25.24,42.76-29.11,49.21  c-8.6,10.76,1.43,15.77,7.79,17.74l-4.45,6.68c-15.8,17.97-22.54,56.07-35.95,74.05c-13.53,17.97-38.23,85.32-38.23,96.53  c0,11.19-11.25,22.46,0,40.37c11.24,17.98,15.69,17.98,22.42,47.2c6.84,29.19,62.94,145.89,67.34,157.1  c4.56,11.25,22.54,56.13,29.21,87.6c6.68,31.39,47.08,89.74,47.08,89.74c-13.41,20.25-33.56,213.29-31.34,228.98  c2.23,15.7-11.18,83.04-2.22,127.98c8.9,44.89-2.39,89.74-13.52,112.2c-11.24,22.43,0,65.14,0,76.32  c0,11.22-31.39,98.74-42.63,132.43c-11.3,33.66-33.73,89.79-35.85,103.27c-2.27,13.44-9.01,163.86-24.81,193.05  c-15.69,29.17,13.57,58.36,13.57,58.36h11.24c0,17.97-26.99,51.65-26.99,51.65s-8.96,17.97-27.04,35.89  c-17.87,17.95,9.07,40.44,9.07,40.44c58.28,24.68,132.4-17.98,132.4-17.98c15.75,11.27,33.67-13.46,33.67-13.46  c18.02-17.98,11.18-78.56,11.18-78.56c13.58,0,11.24-62.91,6.84-87.54c-4.45-24.68,17.93-105.5,22.38-132.46  c4.55-26.96,26.94-74.1,35.95-105.49c8.96-31.47,65.06-193.06,71.79-242.48c6.78-49.39,22.54-136.9,38.18-157.1  c15.75-20.18,58.38-152.63,58.38-177.34c0-24.68,44.96,114.51,47.19,150.4c2.17,35.92,42.58,217.77,44.86,231.18  c2.23,13.48,33.67,67.34,31.4,107.77c-2.17,40.41,15.8,190.77,20.2,251.41c4.51,60.63,0,116.71,0,116.71l11.3,11.26  c0,0,0,0-6.79,8.99c-6.79,8.99-6.79,67.3-6.79,67.3c-6.68,44.9,51.7,38.15,69.68,38.15s22.38-17.9,74.07,4.48  c51.59,22.54,139.19,8.99,139.19,8.99C978.51,2343.6,902.05,2312.13,870.65,2300.94z M260.19,1068.58c0,0-33.72-17.97-35.95-40.37  c-2.17-22.46-42.68-98.81-42.68-134.74c0-35.89-4.4-47.11-13.37-62.81c-9.01-15.74-6.78-33.72-2.33-40.43  c4.45-6.76,56.21-76.32,62.89-103.24l5.36-12.67l1.22-1.9l1.38-1.94l1.39-1.8l2.7-3.18l1.54-1.59l1.49-1.46l1.59-1.4l1.54-1.25  l1.59-1.14l1.42-1.09l1.54-0.96l1.59-0.88l1.32-0.6l1.85-0.75l0.9-0.26l2.44-0.45h0.69l1.27,0.14l0.75,0.27l1.06,0.53l0.48,0.5  l0.58,0.96l0.32,0.72l0.32,1.54v0.84l-0.48,3.1c0,0,18.03,197.54,24.81,224.51l1.23,6.89l0.21,1.85l0.58,6.42v0.96v7.51v2.25  l-0.37,6.12l-0.06,1.75l-0.84,7.55l-0.21,2.67l-0.64,5.23l-0.42,2.78l-0.85,6.23l-1.11,8.43l-0.15,0.76  c-1.01,7.74-1.92,14.66-1.92,20.12C284.85,994.49,260.19,1061.88,260.19,1068.58z M702.41,1091.02c0,0-11.18-44.9-24.76-62.81  c-8.64-11.61-11.67-29.85-12.78-50.93c-0.31-5.11-0.48-10.42-0.48-15.88l-0.05-4.13c-0.1-5.46-0.1-11.01-0.1-16.65  c0-35.87,15.64-116.7,20.2-150.38c4.45-33.66,13.46-114.48,22.42-121.21c0,0-3.71,13.07,7.59,22.14v0.03l3.71,2.54l8.96,2.21  c0,0,33.56,62.91,47.08,80.83c13.41,17.95,9.01,51.62,9.01,51.62s-17.97,103.24-9.01,139.18c0,0-4.51,76.33-20.26,89.77  C738.31,1070.87,709.15,1073.1,702.41,1091.02z"
   id="path2" />
</svg>